HIERARCHY
ROOT hip
{
  OFFSET 0.00112043 5.09927 -9.65472
  CHANNELS 6 Xposition Yposition Zposition Zrotation Xrotation Yrotation
  JOINT abdomen
  {
    OFFSET 0 -1.186 -1.5018
    CHANNELS 3 Zrotation Xrotation Yrotation
    JOINT abdomen2
    {
      OFFSET 0 9.964 0.2134
      CHANNELS 3 Zrotation Xrotation Yrotation
      JOINT chest
      {
        OFFSET 0 13.134 -3.2573
        CHANNELS 3 Zrotation Xrotation Yrotation
        JOINT neck
        {
          OFFSET 0 20.686 -1.6905
          CHANNELS 3 Zrotation Xrotation Yrotation
          JOINT head
          {
            OFFSET 0 7.238 -0.1237
            CHANNELS 3 Zrotation Xrotation Yrotation
            End Site
            {
              OFFSET 0 0 0
            }
          }
        }
        JOINT lCollar
        {
          OFFSET 1.7069 20.075 5.0056
          CHANNELS 3 Zrotation Xrotation Yrotation
          JOINT lShldr
          {
            OFFSET 13.6458 -0.047 -4.849
            CHANNELS 3 Zrotation Xrotation Yrotation
            JOINT lForeArm
            {
              OFFSET 28.3255 -0.9759 2.2888
              CHANNELS 3 Zrotation Xrotation Yrotation
              JOINT lHand
              {
                OFFSET 22.1583 -0.53 10.8316
                CHANNELS 3 Zrotation Xrotation Yrotation
                JOINT lThumb1
                {
                  OFFSET 0.786 0.112 2.5817
                  CHANNELS 3 Zrotation Xrotation Yrotation
                  JOINT lThumb2
                  {
                    OFFSET 0.3601 -0.878 4.2331
                    CHANNELS 3 Zrotation Xrotation Yrotation
                    JOINT lThumb2_End
                    {
                      OFFSET 1.8127 -1.216 2.2227
                      CHANNELS 3 Zrotation Xrotation Yrotation
                      End Site
                      {
                        OFFSET 0.0181 -0.0122 0.0222
                      }
                    }
                  }
                }
                JOINT lCarpal1
                {
                  OFFSET 0.9571 1.114 1.7695
                  CHANNELS 3 Zrotation Xrotation Yrotation
                  JOINT lIndex1
                  {
                    OFFSET 4.1246 0.487 4.1451
                    CHANNELS 3 Zrotation Xrotation Yrotation
                    JOINT lIndex2
                    {
                      OFFSET 3.4052 -1.454 2.7682
                      CHANNELS 3 Zrotation Xrotation Yrotation
                      JOINT lIndex2_End
                      {
                        OFFSET 1.4531 -1.795 1.2713
                        CHANNELS 3 Zrotation Xrotation Yrotation
                        End Site
                        {
                          OFFSET 0.0145 -0.0179 0.0127
                        }
                      }
                    }
                  }
                  JOINT lMid1
                  {
                    OFFSET 5.6954 0.21 2.1184
                    CHANNELS 3 Zrotation Xrotation Yrotation
                    JOINT lMid2
                    {
                      OFFSET 3.9766 -1.54 2.3863
                      CHANNELS 3 Zrotation Xrotation Yrotation
                      JOINT lMid2_End
                      {
                        OFFSET 1.4042 -1.926 1.125
                        CHANNELS 3 Zrotation Xrotation Yrotation
                        End Site
                        {
                          OFFSET 0.014 -0.0193 0.0113
                        }
                      }
                    }
                  }
                }
                JOINT lCarpal2
                {
                  OFFSET 2.0956 0.66 -0.3894
                  CHANNELS 3 Zrotation Xrotation Yrotation
                  JOINT lRing1
                  {
                    OFFSET 5.0395 -0.09 2.4971
                    CHANNELS 3 Zrotation Xrotation Yrotation
                    JOINT lRing2
                    {
                      OFFSET 3.7921 -1.552 1.4806
                      CHANNELS 3 Zrotation Xrotation Yrotation
                      JOINT lRing2_End
                      {
                        OFFSET 1.4655 -1.808 0.9609
                        CHANNELS 3 Zrotation Xrotation Yrotation
                        End Site
                        {
                          OFFSET 0.0147 -0.0181 0.0096
                        }
                      }
                    }
                  }
                  JOINT lPinky1
                  {
                    OFFSET 4.9141 -1.269 0.3591
                    CHANNELS 3 Zrotation Xrotation Yrotation
                    JOINT lPinky2
                    {
                      OFFSET 3.1477 -1.685 0.8462
                      CHANNELS 3 Zrotation Xrotation Yrotation
                      JOINT lPinky2_End
                      {
                        OFFSET 0.8055 -1.585 0.7955
                        CHANNELS 3 Zrotation Xrotation Yrotation
                        End Site
                        {
                          OFFSET 0.0081 -0.0158 0.008
                        }
                      }
                    }
                  }
                }
              }
            }
          }
        }
        JOINT rCollar
        {
          OFFSET -1.7069 20.075 5.0056
          CHANNELS 3 Zrotation Xrotation Yrotation
          JOINT rShldr
          {
            OFFSET -13.6458 -0.047 -4.849
            CHANNELS 3 Zrotation Xrotation Yrotation
            JOINT rForeArm
            {
              OFFSET -28.3255 -0.9759 2.2888
              CHANNELS 3 Zrotation Xrotation Yrotation
              JOINT rHand
              {
                OFFSET -22.1583 -0.53 10.8316
                CHANNELS 3 Zrotation Xrotation Yrotation
                JOINT rThumb1
                {
                  OFFSET -0.786 0.112 2.5817
                  CHANNELS 3 Zrotation Xrotation Yrotation
                  JOINT rThumb2
                  {
                    OFFSET -0.3601 -0.878 4.2331
                    CHANNELS 3 Zrotation Xrotation Yrotation
                    JOINT rThumb2_End
                    {
                      OFFSET -1.8127 -1.216 2.2227
                      CHANNELS 3 Zrotation Xrotation Yrotation
                      End Site
                      {
                        OFFSET -0.0181 -0.0122 0.0222
                      }
                    }
                  }
                }
                JOINT rCarpal1
                {
                  OFFSET -0.9571 1.114 1.7695
                  CHANNELS 3 Zrotation Xrotation Yrotation
                  JOINT rIndex1
                  {
                    OFFSET -4.1246 0.487 4.1451
                    CHANNELS 3 Zrotation Xrotation Yrotation
                    JOINT rIndex2
                    {
                      OFFSET -3.4052 -1.454 2.7682
                      CHANNELS 3 Zrotation Xrotation Yrotation
                      JOINT rIndex2_End
                      {
                        OFFSET -1.4531 -1.795 1.2713
                        CHANNELS 3 Zrotation Xrotation Yrotation
                        End Site
                        {
                          OFFSET -0.0145 -0.018 0.0127
                        }
                      }
                    }
                  }
                  JOINT rMid1
                  {
                    OFFSET -5.6954 0.21 2.1184
                    CHANNELS 3 Zrotation Xrotation Yrotation
                    JOINT rMid2
                    {
                      OFFSET -3.9766 -1.54 2.3863
                      CHANNELS 3 Zrotation Xrotation Yrotation
                      JOINT rMid2_End
                      {
                        OFFSET -1.4042 -1.926 1.125
                        CHANNELS 3 Zrotation Xrotation Yrotation
                        End Site
                        {
                          OFFSET -0.014 -0.0193 0.0113
                        }
                      }
                    }
                  }
                }
                JOINT rCarpal2
                {
                  OFFSET -2.0956 0.66 -0.3894
                  CHANNELS 3 Zrotation Xrotation Yrotation
                  JOINT rRing1
                  {
                    OFFSET -5.0395 -0.09 2.4971
                    CHANNELS 3 Zrotation Xrotation Yrotation
                    JOINT rRing2
                    {
                      OFFSET -3.7921 -1.552 1.4806
                      CHANNELS 3 Zrotation Xrotation Yrotation
                      JOINT rRing2_End
                      {
                        OFFSET -1.4655 -1.808 0.9609
                        CHANNELS 3 Zrotation Xrotation Yrotation
                        End Site
                        {
                          OFFSET -0.0147 -0.0181 0.0096
                        }
                      }
                    }
                  }
                  JOINT rPinky1
                  {
                    OFFSET -4.9141 -1.269 0.3592
                    CHANNELS 3 Zrotation Xrotation Yrotation
                    JOINT rPinky2
                    {
                      OFFSET -3.1477 -1.685 0.8462
                      CHANNELS 3 Zrotation Xrotation Yrotation
                      JOINT rPinky2_End
                      {
                        OFFSET -0.8055 -1.585 0.7955
                        CHANNELS 3 Zrotation Xrotation Yrotation
                        End Site
                        {
                          OFFSET -0.0081 -0.0158 0.008
                        }
                      }
                    }
                  }
                }
              }
            }
          }
        }
      }
    }
  }
  JOINT lThigh
  {
    OFFSET 8.367 -8.2066 0.5982
    CHANNELS 3 Zrotation Xrotation Yrotation
    JOINT lShin
    {
      OFFSET 2.1923 -43.463 -0.4932
      CHANNELS 3 Zrotation Xrotation Yrotation
      JOINT lFoot
      {
        OFFSET 0.7333 -45.8593 -2.6451
        CHANNELS 3 Zrotation Xrotation Yrotation
        End Site
        {
          OFFSET 2.6618 -4.2699 12.3931
        }
      }
    }
  }
  JOINT rThigh
  {
    OFFSET -8.367 -8.2066 0.5982
    CHANNELS 3 Zrotation Xrotation Yrotation
    JOINT rShin
    {
      OFFSET -2.1923 -43.463 -0.4931
      CHANNELS 3 Zrotation Xrotation Yrotation
      JOINT rFoot
      {
        OFFSET -0.7333 -45.8593 -2.6451
        CHANNELS 3 Zrotation Xrotation Yrotation
        End Site
        {
          OFFSET -2.6618 -4.2699 12.3931
        }
      }
    }
  }
}
MOTION
Frames:	4
Frame Time:	0.0333333
0 91.7903 2.51682 0 0 -0 0 0 -0 0 0 -0 0 0 -0 0 0 -0 0 0 -0 0 0 -0 1.66051 0.0835086 5.75766 -0.0175111 0.895433 15.7816 7.95139e-016 -1.98785e-016 -0 5.46658e-016 -3.97569e-016 -0 5.96354e-016 0 -0 3.97569e-016 1.98785e-016 9.54166e-015 1.49089e-016 -3.97569e-016 -0 6.4605e-016 0 3.18055e-015 5.96354e-016 0 3.18055e-015 8.94531e-016 -1.98785e-016 6.36111e-015 6.4605e-016 0 3.18055e-015 5.96354e-016 0 3.18055e-015 8.94531e-016 -1.98785e-016 6.36111e-015 1.49089e-016 -3.97569e-016 -0 6.4605e-016 0 3.18055e-015 5.96354e-016 0 3.18055e-015 8.94531e-016 -1.98785e-016 6.36111e-015 6.4605e-016 0 3.18055e-015 5.96354e-016 0 3.18055e-015 8.94531e-016 -1.98785e-016 6.36111e-015 0 0 -0 -1.4496 0.0636048 -5.0245 -1.74811 1.20616 -16.8394 -1.19271e-015 1.98785e-016 -3.18055e-015 -3.97569e-016 1.98785e-016 -3.18055e-015 -2.98177e-016 1.98785e-016 -3.18055e-015 -2.98177e-016 3.97569e-016 -0 4.96962e-016 0 -6.36111e-015 -9.93923e-017 3.97569e-016 -0 -8.94531e-016 5.96354e-016 -0 -3.97569e-016 3.97569e-016 -0 -9.93923e-017 3.97569e-016 -0 -8.94531e-016 5.96354e-016 -0 -3.97569e-016 3.97569e-016 -0 4.96962e-016 0 -6.36111e-015 -9.93923e-017 3.97569e-016 -0 -8.94531e-016 5.96354e-016 -0 -3.97569e-016 3.97569e-016 -0 -9.93923e-017 3.97569e-016 -0 -8.94531e-016 5.96354e-016 -0 -3.97569e-016 3.97569e-016 -0 -4.66111 -0.998717 0.12318 0.00986924 1.54847 0.176523 4.65186 -0.572283 -0.254274 4.66111 -0.998765 -0.123176 -0.00986867 1.54869 -0.176537 -4.65186 -0.572453 0.25427 
0.000846536 -3.23192 -9.95406 -180 -76.2114 -180 -0.0428293 0.884446 -0.155714 -0.083269 1.76905 -0.310822 -0.0832692 1.76901 -0.310822 -8.6134e-006 42.498 2.46305e-005 0.0156893 9.48355 0.0166736 -24.8213 8.17801 -4.17183 -58.9646 -11.4926 -27.0145 -5.18945 38.1179 15.8256 -62.7081 -45.5515 13.751 -1.27222e-014 9.54166e-015 -1.27222e-014 -6.36111e-015 -3.18055e-015 6.36111e-015 -9.54166e-015 0 3.18055e-015 -3.18055e-015 6.36111e-015 -1.27222e-014 3.18055e-015 0 -0 -1.90833e-014 6.36111e-015 -3.18055e-015 -1.27222e-014 3.18055e-015 1.27222e-014 3.18055e-015 0 -0 -1.90833e-014 6.36111e-015 -3.18055e-015 -1.27222e-014 3.18055e-015 1.27222e-014 -3.18055e-015 6.36111e-015 -1.27222e-014 3.18055e-015 0 -0 -1.90833e-014 6.36111e-015 -3.18055e-015 -1.27222e-014 3.18055e-015 1.27222e-014 3.18055e-015 0 -0 -1.90833e-014 6.36111e-015 -3.18055e-015 -1.27222e-014 3.18055e-015 1.27222e-014 27.3498 8.01062 5.75834 57.3323 -12.3793 26.959 2.3609 38.2557 -15.6574 61.445 -43.7967 -17.4432 6.36111e-015 6.36111e-015 -3.18055e-015 -3.18055e-015 3.18055e-015 6.36111e-015 -0 0 3.18055e-015 6.36111e-015 6.36111e-015 -3.18055e-015 -1.27222e-014 3.18055e-015 1.90833e-014 -0 0 9.54166e-015 0 3.18055e-015 -0 -1.27222e-014 3.18055e-015 1.90833e-014 -0 0 9.54166e-015 0 3.18055e-015 -0 6.36111e-015 6.36111e-015 -3.18055e-015 -1.27222e-014 3.18055e-015 1.90833e-014 -0 0 9.54166e-015 0 3.18055e-015 -0 -1.27222e-014 3.18055e-015 1.90833e-014 -0 0 9.54166e-015 0 3.18055e-015 -0 24.5306 -21.9198 52.3732 63.9705 51.0892 -48.9373 0.610892 24.5487 9.48745 -24.5503 -21.9159 -52.3977 -64.0177 51.0718 48.988 -0.622283 24.5397 -9.4995 
0.000919029 3.31737 -9.82382 -180 -83.5498 -180 -0.0369039 0.445634 -0.147596 -0.0726628 0.891389 -0.294917 -0.0726629 0.891371 -0.294917 5.04722e-005 39.9978 -0.00011237 0.072701 8.64446 0.0762378 -22.5425 8.73989 -2.87674 -55.7829 -10.5874 -25.2911 -5.73161 35.9945 15.9702 -59.586 -42.3177 12.2314 -2.62333e-006 -6.20181e-007 -1.43064e-006 -3.86369e-006 4.62647e-006 -4.49636e-006 -2.62333e-006 -6.20181e-007 -1.43064e-006 3.18055e-015 -6.36111e-015 -3.18055e-015 -2.62333e-006 -6.20181e-007 -1.43064e-006 -3.86369e-006 4.62647e-006 -4.49636e-006 -2.62333e-006 -6.20181e-007 -1.43064e-006 -2.62333e-006 -6.20181e-007 -1.43064e-006 -3.86369e-006 4.62647e-006 -4.49636e-006 -2.62333e-006 -6.20181e-007 -1.43064e-006 3.18055e-015 -6.36111e-015 -3.18055e-015 -2.62333e-006 -6.20181e-007 -1.43064e-006 -3.86369e-006 4.62647e-006 -4.49636e-006 -2.62333e-006 -6.20181e-007 -1.43064e-006 -2.62333e-006 -6.20181e-007 -1.43064e-006 -3.86369e-006 4.62647e-006 -4.49636e-006 -2.62333e-006 -6.20181e-007 -1.43064e-006 24.7341 8.56778 4.21926 54.3926 -11.3527 25.3518 3.09181 36.143 -15.9043 58.637 -40.7691 -15.4021 -3.87784e-006 -4.57868e-006 -4.55337e-006 -2.60704e-006 6.35402e-007 -1.41334e-006 -2.60704e-006 6.35402e-007 -1.41334e-006 0 0 -3.18055e-015 -3.87784e-006 -4.57868e-006 -4.55337e-006 -2.60704e-006 6.35402e-007 -1.41334e-006 -2.60704e-006 6.35402e-007 -1.41334e-006 -3.87784e-006 -4.57868e-006 -4.55337e-006 -2.60704e-006 6.35402e-007 -1.41334e-006 -2.60704e-006 6.35402e-007 -1.41334e-006 0 0 -3.18055e-015 -3.87784e-006 -4.57868e-006 -4.55337e-006 -2.60704e-006 6.35402e-007 -1.41334e-006 -2.60704e-006 6.35402e-007 -1.41334e-006 -3.87784e-006 -4.57868e-006 -4.55337e-006 -2.60704e-006 6.35402e-007 -1.41334e-006 -2.60704e-006 6.35402e-007 -1.41334e-006 21.6515 -22.4762 49.1185 56.6403 49.7573 -43.4942 0.848515 23.143 9.0538 -21.6704 -22.4731 -49.1412 -56.6849 49.7445 43.5435 -0.858207 23.1343 -9.06539 
0.000968791 3.75664 -9.78564 -180 -84.7158 -180 -0.035148 0.0795823 -0.148249 -0.07009 0.159268 -0.296449 -0.0700901 0.159266 -0.296449 -0.000300415 39.9973 0.00065384 0.127543 8.37869 0.133719 -21.7511 9.73803 -1.89938 -56.4861 -10.1695 -25.5401 -6.54027 36.0584 16.0534 -58.9513 -42.244 12.1674 3.18055e-015 3.18055e-015 3.18055e-015 -3.85572e-006 4.62796e-006 -4.50602e-006 -3.18055e-015 -6.36111e-015 -6.36111e-015 3.18055e-015 0 3.18055e-015 -6.36111e-015 0 -3.18055e-015 -3.85572e-006 4.62796e-006 -4.50602e-006 3.18055e-015 -9.54166e-015 3.18055e-015 -6.36111e-015 0 -3.18055e-015 -3.85572e-006 4.62796e-006 -4.50602e-006 3.18055e-015 -9.54166e-015 3.18055e-015 3.18055e-015 0 3.18055e-015 -6.36111e-015 0 -3.18055e-015 -3.85572e-006 4.62796e-006 -4.50602e-006 3.18055e-015 -9.54166e-015 3.18055e-015 -6.36111e-015 0 -3.18055e-015 -3.85572e-006 4.62796e-006 -4.50602e-006 3.18055e-015 -9.54166e-015 3.18055e-015 23.7548 9.55719 3.10437 55.241 -10.8607 25.6728 3.99039 36.2049 -16.0017 58.0538 -40.7802 -15.1835 1.40885e-006 1.57439e-006 -2.60739e-006 6.36111e-015 6.36111e-015 3.18055e-015 -2.60739e-006 6.33128e-007 -1.40885e-006 -6.36111e-015 -3.18055e-015 6.36111e-015 1.40885e-006 1.57439e-006 -2.60739e-006 6.36111e-015 0 -3.18055e-015 -2.60739e-006 6.33128e-007 -1.40885e-006 1.40885e-006 1.57439e-006 -2.60739e-006 6.36111e-015 0 -3.18055e-015 -2.60739e-006 6.33128e-007 -1.40885e-006 -6.36111e-015 -3.18055e-015 6.36111e-015 1.40885e-006 1.57439e-006 -2.60739e-006 6.36111e-015 0 -3.18055e-015 -2.60739e-006 6.33128e-007 -1.40885e-006 1.40885e-006 1.57439e-006 -2.60739e-006 6.36111e-015 0 -3.18055e-015 -2.60739e-006 6.33128e-007 -1.40885e-006 21.654 -23.3898 49.2374 56.6404 49.7571 -43.49 0.507152 23.0298 9.2906 -21.6733 -23.3868 -49.2597 -56.6851 49.7443 43.5393 -0.515988 23.0211 -9.30235 
